<svg xmlns="http://www.w3.org/2000/svg" width="1200" height="400" viewBox="0 0 1200 400">
  <defs>
    <style>
      .cls-1 {
        fill-rule: evenodd;
      }
    </style>
  </defs>
  <path id="_._copy" data-name="~/.* copy" class="cls-1" d="M446.024,203.578c11.776,0,22.949-7.693,31.128-27.472l-16.83-7.871c-3.693,10.586-8.562,15.559-13.917,15.559-10.445,0-17.07-14.354-32.8-14.354-11.776,0-22.949,7.693-31.128,27.525l16.83,7.818c3.694-10.533,8.7-15.559,13.917-15.559C423.664,189.224,430.29,203.578,446.024,203.578ZM501,279.859h23.44l62.752-165.744H563.751Zm157.38-28.2c13.106,0,22.162-9.776,22.162-22.379,0-12.412-9.056-22.378-22.162-22.378s-22.163,9.966-22.163,22.378C636.217,241.887,645.273,251.663,658.38,251.663Zm92.251-19.584,22.032-27.129L794.7,232.079l12.314-8.464L788.446,193.83l29.209-12.923L813.233,167.2l-30.848,8.279-2.349-33.944H765.29l-2.348,33.944L732.094,167.2l-4.422,13.712L756.88,193.83l-18.563,29.785Z"/>
</svg>
